<svg xmlns="http://www.w3.org/2000/svg" xmlns:xlink="http://www.w3.org/1999/xlink" width="358pt" height="888" viewBox="7.2 7.2 351.2 659.2"><g class="graph" transform="translate(11.2 655.2)"><g class="node"><a xlink:href="#remove-clientrouter-" xlink:title="Remove &lt;ClientRouter /&gt; from all pages"><path fill="none" stroke="#000" d="M277.5-644h-235c-6 0-12 6-12 12v12c0 6 6 12 12 12h235c6 0 12-6 12-12v-12c0-6-6-12-12-12"/><text x="160" y="-622.9" font-family="sans-serif" font-size="12" text-anchor="middle">Remove &lt;ClientRouter /&gt; from all pages</text></a></g><g class="node"><a xlink:href="#replace-spa-state" xlink:title="Replace SPA state\n e.g. transition:persist and\nshared state management"><path fill="none" stroke="#000" d="M178-572H26c-6 0-12 6-12 12v23c0 6 6 12 12 12h152c6 0 12-6 12-12v-23c0-6-6-12-12-12"/><text x="102" y="-558.4" font-family="sans-serif" font-size="12" text-anchor="middle">Replace SPA state</text><text x="102" y="-545.4" font-family="sans-serif" font-size="12" text-anchor="middle"> e.g. transition:persist and</text><text x="102" y="-532.4" font-family="sans-serif" font-size="12" text-anchor="middle">shared state management</text></a></g><g class="edge"><path fill="none" stroke="#000" d="M146.84-607.87c-6.31 8.21-14.06 18.3-21.33 27.77"/><path stroke="#000" d="m128.16-577.81-8.87 5.8 3.32-10.06z"/></g><g class="node"><a xlink:href="#check-mpa-functionality" xlink:title="Check site's MPA functionality"><path fill="none" stroke="#000" d="M245-489H75c-6 0-12 6-12 12v12c0 6 6 12 12 12h170c6 0 12-6 12-12v-12c0-6-6-12-12-12"/><text x="160" y="-467.9" font-family="sans-serif" font-size="12" text-anchor="middle">Check site&apos;s MPA functionality</text></a></g><g class="edge"><path fill="none" stroke="#000" d="M176.89-607.99c8.4 9.68 17.69 22.53 22.11 35.99 6.52 19.85 6.52 27.15 0 47-3.31 10.09-9.37 19.85-15.73 28.18"/><path stroke="#000" d="m185.92-494.54-9.03 5.53 3.61-9.96z"/></g><g class="edge"><path fill="none" stroke="#000" d="M119.4-524.85c6.68 8.69 14.33 18.66 21.19 27.58"/><path stroke="#000" d="m143.54-499.18 3.31 10.07-8.87-5.8z"/></g><g class="node"><a xlink:href="#enable-cross-document-view-transitions" xlink:title="Add @transition {navigation: auto}"><path fill="none" stroke="#000" d="M261.5-417h-203c-6 0-12 6-12 12v12c0 6 6 12 12 12h203c6 0 12-6 12-12v-12c0-6-6-12-12-12"/><text x="160" y="-395.9" font-family="sans-serif" font-size="12" text-anchor="middle">Add @transition {navigation: auto}</text></a></g><g class="edge"><path fill="none" stroke="#000" d="M160-452.7v25.59"/><path stroke="#000" d="m163.5-427.1-3.5 10-3.5-10z"/></g><g class="node"><a xlink:href="#keep-generated-css" xlink:title="Keep transition:animate\nand transition:name?"><path fill="none" stroke="#000" d="M148.26-342.51 11.74-313.49c-5.87 1.24-5.87 3.74 0 4.98l136.52 29.02c5.87 1.24 17.61 1.24 23.48 0l136.52-29.02c5.87-1.24 5.87-3.74 0-4.98l-136.52-29.02c-5.87-1.24-17.61-1.24-23.48 0"/><text x="160" y="-314.4" font-family="sans-serif" font-size="12" text-anchor="middle">Keep transition:animate</text><text x="160" y="-301.4" font-family="sans-serif" font-size="12" text-anchor="middle">and transition:name?</text></a></g><g class="edge"><path fill="none" stroke="#000" d="M160-380.6v25.46"/><path stroke="#000" d="m163.5-355.03-3.5 10-3.5-10z"/></g><g class="node"><a xlink:href="#done" xlink:title="Done"><path fill="none" stroke="#000" d="M201-36h-30c-6 0-12 6-12 12v12c0 6 6 12 12 12h30c6 0 12-6 12-12v-12c0-6-6-12-12-12"/><text x="186" y="-14.9" font-family="sans-serif" font-size="12" text-anchor="middle">Done</text></a></g><g class="edge rj"><path fill="none" stroke="#000" d="M146.29-279.65C127.31-232.99 98.63-141.72 129-72c4.93 11.32 13.61 21.32 22.73 29.49"/><path stroke="#000" d="m153.99-45.19 5.43 9.1-9.92-3.72z"/><text x="116.41" y="-224.32" font-family="Times,serif" font-size="14" text-anchor="end">yes,</text><text x="116.41" y="-209.32" font-family="Times,serif" font-size="14" text-anchor="end">and I have</text><text x="116.41" y="-194.32" font-family="Times,serif" font-size="14" text-anchor="end">no special</text><text x="116.41" y="-179.32" font-family="Times,serif" font-size="14" text-anchor="end">backward</text><text x="116.41" y="-164.32" font-family="Times,serif" font-size="14" text-anchor="end">animations</text></g><g class="node"><a xlink:href="#add-direction-detection" xlink:title="Add direction\ndetection"><path fill="none" stroke="#000" d="M221.5-108h-71c-6 0-12 6-12 12v12c0 6 6 12 12 12h71c6 0 12-6 12-12v-12c0-6-6-12-12-12"/><text x="186" y="-93.4" font-family="sans-serif" font-size="12" text-anchor="middle">Add direction</text><text x="186" y="-80.4" font-family="sans-serif" font-size="12" text-anchor="middle">detection</text></a></g><g class="edge"><path fill="none" stroke="#000" d="M163.55-277.54c3.69 33.48 9.74 87.19 15.45 133.54 1.04 8.42 2.23 17.58 3.33 25.89"/><path stroke="#000" d="m185.8-118.55-2.15 10.37-4.79-9.44z"/><text x="153.42" y="-181.52" font-family="Times,serif" font-size="14" text-anchor="middle">yes, with</text><text x="153.42" y="-166.52" font-family="Times,serif" font-size="14" text-anchor="middle">backward</text><text x="153.42" y="-151.52" font-family="Times,serif" font-size="14" text-anchor="middle">animations</text></g><g class="node"><a xlink:href="#replace-auto-generated-css" xlink:title="Replace with CSS\nfor\nview transition names\nand pseudo-elements"><path fill="none" stroke="#000" d="M324-204H200c-6 0-12 6-12 12v36c0 6 6 12 12 12h124c6 0 12-6 12-12v-36c0-6-6-12-12-12"/><text x="262" y="-190.4" font-family="sans-serif" font-size="12" text-anchor="middle">Replace with CSS</text><text x="262" y="-177.4" font-family="sans-serif" font-size="12" text-anchor="middle">for</text><text x="262" y="-164.4" font-family="sans-serif" font-size="12" text-anchor="middle">view transition names</text><text x="262" y="-151.4" font-family="sans-serif" font-size="12" text-anchor="middle">and pseudo-elements</text></a></g><g class="edge"><path fill="none" stroke="#000" d="M181.63-281.37c15.25 20.18 35.8 47.38 52.31 69.23"/><path stroke="#000" d="m236.81-214.14 3.24 10.09-8.82-5.87z"/><text x="199.95" y="-246.37" font-family="Times,serif" font-size="14" text-anchor="middle"> no</text></g><g class="edge"><path fill="none" stroke="#000" d="M186-71.7v25.59"/><path stroke="#000" d="m189.5-46.1-3.5 10-3.5-10z"/></g><g class="edge"><path fill="none" stroke="#000" d="M261.33-143.95c-1.59 21.11-6.1 49.76-18.33 71.95-6.07 11-15.24 21-24.47 29.28"/><path stroke="#000" d="m220.72-39.99-9.89 3.8 5.36-9.14z"/></g></g></svg>