<svg xmlns="http://www.w3.org/2000/svg" xmlns:xlink="http://www.w3.org/1999/xlink" width="358pt" height="679pt" viewBox="7.2 7.2 351.2 672.2"><g class="graph" transform="translate(11.2 668.2)"><g class="node"><a xlink:href="#remove-clientrouter-" xlink:title="Remove &lt;ClientRouter /&gt; from all pages"><path fill="none" stroke="#000" d="M277.5-657h-235c-6 0-12 6-12 12v12c0 6 6 12 12 12h235c6 0 12-6 12-12v-12c0-6-6-12-12-12"/><text x="160" y="-635.9" font-family="sans-serif" font-size="12" text-anchor="middle">Remove &lt;ClientRouter /&gt; from all pages</text></a></g><g class="node"><a xlink:href="#replace-spa-state" xlink:title="Replace SPA state\n e.g. transition:persist and\nshared state management"><path fill="none" stroke="#000" d="M178-585H26c-6 0-12 6-12 12v23c0 6 6 12 12 12h152c6 0 12-6 12-12v-23c0-6-6-12-12-12"/><text x="102" y="-571.4" font-family="sans-serif" font-size="12" text-anchor="middle">Replace SPA state</text><text x="102" y="-558.4" font-family="sans-serif" font-size="12" text-anchor="middle"> e.g. transition:persist and</text><text x="102" y="-545.4" font-family="sans-serif" font-size="12" text-anchor="middle">shared state management</text></a></g><g class="edge"><path fill="none" stroke="#000" d="M146.84-620.87c-6.31 8.21-14.06 18.3-21.33 27.77"/><path stroke="#000" d="m128.16-590.81-8.87 5.8 3.32-10.06z"/></g><g class="node"><a xlink:href="#check-mpa-functionality" xlink:title="Check site's MPA functionality"><path fill="none" stroke="#000" d="M245-502H75c-6 0-12 6-12 12v12c0 6 6 12 12 12h170c6 0 12-6 12-12v-12c0-6-6-12-12-12"/><text x="160" y="-480.9" font-family="sans-serif" font-size="12" text-anchor="middle">Check site&apos;s MPA functionality</text></a></g><g class="edge"><path fill="none" stroke="#000" stroke-width="2" d="M176.89-620.99c8.4 9.68 17.69 22.53 22.11 35.99 6.52 19.85 6.52 27.15 0 47-3.31 10.09-9.37 19.85-15.73 28.18"/><path stroke="#000" stroke-width="2" d="m185.92-507.54-9.03 5.53 3.61-9.96z"/></g><g class="edge"><path fill="none" stroke="#000" d="M119.4-537.85c6.68 8.69 14.33 18.66 21.19 27.58"/><path stroke="#000" d="m143.54-512.18 3.31 10.07-8.87-5.8z"/></g><g class="node"><a xlink:href="#enable-cross-document-view-transitions" xlink:title="Add @transition {navigation: auto}"><path fill="none" stroke="#000" d="M261.5-430h-203c-6 0-12 6-12 12v12c0 6 6 12 12 12h203c6 0 12-6 12-12v-12c0-6-6-12-12-12"/><text x="160" y="-408.9" font-family="sans-serif" font-size="12" text-anchor="middle">Add @transition {navigation: auto}</text></a></g><g class="edge"><path fill="none" stroke="#000" stroke-width="2" d="M160-465.7v25.59"/><path stroke="#000" stroke-width="2" d="m163.5-440.1-3.5 10-3.5-10z"/></g><g class="node"><a xlink:href="#keep-generated-css" xlink:title="Keep transition:animate\nand transition:name?"><path fill="none" stroke="#000" d="M148.26-355.51 11.74-326.49c-5.87 1.24-5.87 3.74 0 4.98l136.52 29.02c5.87 1.24 17.61 1.24 23.48 0l136.52-29.02c5.87-1.24 5.87-3.74 0-4.98l-136.52-29.02c-5.87-1.24-17.61-1.24-23.48 0"/><text x="160" y="-327.4" font-family="sans-serif" font-size="12" text-anchor="middle">Keep transition:animate</text><text x="160" y="-314.4" font-family="sans-serif" font-size="12" text-anchor="middle">and transition:name?</text></a></g><g class="edge"><path fill="none" stroke="#000" stroke-width="2" d="M160-393.6v25.46"/><path stroke="#000" stroke-width="2" d="m163.5-368.03-3.5 10-3.5-10z"/></g><g class="node"><a xlink:href="#done" xlink:title="Done"><path fill="none" stroke="#000" d="M207-36h-30c-6 0-12 6-12 12v12c0 6 6 12 12 12h30c6 0 12-6 12-12v-12c0-6-6-12-12-12"/><text x="192" y="-14.9" font-family="sans-serif" font-size="12" text-anchor="middle">Done</text></a></g><g class="edge rj"><path fill="none" stroke="#000" stroke-width="2" d="M147.69-292.53C129.96-243.75 102.73-146.07 135-72c4.93 11.32 13.61 21.32 22.73 29.49"/><path stroke="#000" stroke-width="2" d="m159.99-45.19 5.43 9.1-9.92-3.72z"/><text x="120.35" y="-230.04" font-family="Times,serif" font-size="14" text-anchor="end">yes,</text><text x="120.35" y="-215.04" font-family="Times,serif" font-size="14" text-anchor="end">and I have</text><text x="120.35" y="-200.04" font-family="Times,serif" font-size="14" text-anchor="end">no special</text><text x="120.35" y="-185.04" font-family="Times,serif" font-size="14" text-anchor="end">backward</text><text x="120.35" y="-170.04" font-family="Times,serif" font-size="14" text-anchor="end">animations</text></g><g class="node"><a xlink:href="#add-direction-detection" xlink:title="Add direction\ndetection"><path fill="none" stroke="#000" d="M227.5-108h-71c-6 0-12 6-12 12v12c0 6 6 12 12 12h71c6 0 12-6 12-12v-12c0-6-6-12-12-12"/><text x="192" y="-93.4" font-family="sans-serif" font-size="12" text-anchor="middle">Add direction</text><text x="192" y="-80.4" font-family="sans-serif" font-size="12" text-anchor="middle">detection</text></a></g><g class="edge"><path fill="none" stroke="#000" d="M162.15-290.15c2.67 36.04 7.99 95.51 16.85 146.15 1.49 8.53 3.58 17.73 5.64 26.02"/><path stroke="#000" d="m188.09-118.62-.9 10.56-5.88-8.81z"/><text x="151.26" y="-187.46" font-family="Times,serif" font-size="14" text-anchor="middle">yes, with</text><text x="151.26" y="-172.46" font-family="Times,serif" font-size="14" text-anchor="middle">backward</text><text x="151.26" y="-157.46" font-family="Times,serif" font-size="14" text-anchor="middle">animations</text></g><g class="node"><a xlink:href="#replace-auto-generated-css" xlink:title="Replace with\nCSS for\nview transition names\nand\npseudo-elements"><path fill="none" stroke="#000" d="M324-217H200c-6 0-12 6-12 12v49c0 6 6 12 12 12h124c6 0 12-6 12-12v-49c0-6-6-12-12-12"/><text x="262" y="-203.4" font-family="sans-serif" font-size="12" text-anchor="middle">Replace with</text><text x="262" y="-190.4" font-family="sans-serif" font-size="12" text-anchor="middle">CSS for</text><text x="262" y="-177.4" font-family="sans-serif" font-size="12" text-anchor="middle">view transition names</text><text x="262" y="-164.4" font-family="sans-serif" font-size="12" text-anchor="middle">and</text><text x="262" y="-151.4" font-family="sans-serif" font-size="12" text-anchor="middle">pseudo-elements</text></a></g><g class="edge"><path fill="none" stroke="#000" d="M180.64-294.37c14.25 19.77 33.46 46.43 49.64 68.87"/><path stroke="#000" d="m233.31-227.29 3.01 10.16-8.69-6.06z"/><text x="197.38" y="-259.68" font-family="Times,serif" font-size="14" text-anchor="middle"> no</text></g><g class="edge"><path fill="none" stroke="#000" d="M192-71.7v25.59"/><path stroke="#000" d="m195.5-46.1-3.5 10-3.5-10z"/></g><g class="edge"><path fill="none" stroke="#000" d="M263.73-143.83C263.37-122 260.26-94.11 249-72c-5.65 11.1-14.63 21.08-23.8 29.3"/><path stroke="#000" d="m227.42-39.99-9.9 3.78 5.39-9.13z"/></g><g class="edge"><path fill="none" stroke="#000" d="M233.73-143.76c-7.29 9.21-14.97 18.93-21.74 27.49"/><path stroke="#000" d="m214.53-113.84-8.95 5.67 3.46-10.01z"/></g></g></svg>